<svg id="Capa_1" enable-background="new 0 0 496.156 496.156" height="512" viewBox="0 0 496.156 496.156" width="512" xmlns="http://www.w3.org/2000/svg"><g><path d="m40.986 82.333h414.214c6.525 0 11.814 5.289 11.814 11.814v271.254h-437.842v-271.254c0-6.525 5.289-11.814 11.814-11.814z" fill="#575b6d"/><path d="m49.037 102.198h398.112v243.338h-398.112z" fill="#69b0ee"/><path d="m491.552 365.401c2.39-.148 4.448 1.669 4.596 4.059.009.143.011.287.005.431-1.323 11.547-6.95 22.172-15.76 29.753-10.721 9.277-24.461 14.318-38.637 14.177h-387.356c-28.436 0-51.84-19.274-54.397-43.93-.089-2.393 1.778-4.405 4.171-4.495.144-.005.287-.004.431.005z" fill="#62667c"/><path d="m195.104 365.401h105.947c0 6.401-5.189 11.589-11.589 11.589h-82.768c-6.401 0-11.59-5.189-11.59-11.589z" fill="#828a9e"/><g fill="#eeefee"><path d="m216.895 289.059 50.174-130.39h12.227l-50.351 130.39z"/><path d="m121.887 219.008 83.442-42.997v12.405l-70.322 35.271v.36l70.322 35.253v12.405l-83.442-42.979z"/><path d="m374.298 228.903-83.442 42.802v-12.405l70.848-35.247v-.36l-70.848-35.276v-12.405l83.448 42.808z"/></g></g></svg>