<?xml version="1.0"?>
<svg xmlns="http://www.w3.org/2000/svg" xmlns:xlink="http://www.w3.org/1999/xlink" xmlns:svgjs="http://svgjs.com/svgjs" version="1.1" width="512" height="512" x="0" y="0" viewBox="0 0 512.031 512.031" style="enable-background:new 0 0 512 512" xml:space="preserve" class=""><g>
<g xmlns="http://www.w3.org/2000/svg">
	<g>
		<path d="M384.026,34.399c-59.2-34.176-128.192-43.264-194.24-25.568C123.706,26.527,68.506,68.863,34.33,128.095    c-70.592,122.24-28.544,279.136,93.696,349.696c40.192,23.2,84.16,34.24,127.552,34.24c88.544,0,174.784-45.92,222.144-127.936    C548.282,261.855,506.234,104.959,384.026,34.399z M450.01,368.095c-61.792,106.944-199.072,143.744-305.984,81.984    C37.05,388.319,0.282,251.071,62.042,144.095c29.92-51.808,78.208-88.864,136.032-104.352c19.296-5.152,38.88-7.712,58.304-7.712    c38.848,0,77.152,10.144,111.648,30.08C474.938,123.871,511.738,261.119,450.01,368.095z" fill="#c9c76b" data-original="#000000" style="" class=""/>
	</g>
</g>
<g xmlns="http://www.w3.org/2000/svg">
	<g>
		<path d="M364.186,227.103c-7.712-28.896-26.24-53.056-52.16-68c-53.504-30.912-122.08-12.512-152.992,40.992    c-30.88,53.472-12.48,122.112,40.992,152.992c17.6,10.176,36.8,15.008,55.808,15.008c38.72,0,76.448-20.096,97.152-56    C367.962,286.175,371.93,255.999,364.186,227.103z M325.306,296.095c-10.688,18.496-27.936,31.744-48.608,37.28    s-42.208,2.656-60.672-7.968c-38.208-22.08-51.328-71.104-29.28-109.312c10.688-18.496,27.936-31.744,48.576-37.28    s42.208-2.688,60.704,8c18.496,10.688,31.712,27.936,37.248,48.576C338.81,256.031,335.962,277.599,325.306,296.095z" fill="#c9c76b" data-original="#000000" style="" class=""/>
	</g>
</g>
<g xmlns="http://www.w3.org/2000/svg">
	<g>
		
			<rect x="174.167" y="383.354" transform="matrix(0.4999 -0.8661 0.8661 0.4999 -203.7605 445.8346)" width="220.003" height="32" fill="#c9c76b" data-original="#000000" style="" class=""/>
	</g>
</g>
<g xmlns="http://www.w3.org/2000/svg">
	<g>
		<rect x="101.885" y="98.87" transform="matrix(0.866 -0.5001 0.5001 0.866 -88.6401 86.9425)" width="32.001" height="219.946" fill="#c9c76b" data-original="#000000" style="" class=""/>
	</g>
</g>
<g xmlns="http://www.w3.org/2000/svg">
	<g>
		<rect x="256.03" y="144.09" width="219.94" height="32" fill="#c9c76b" data-original="#000000" style="" class=""/>
	</g>
</g>
<g xmlns="http://www.w3.org/2000/svg">
</g>
<g xmlns="http://www.w3.org/2000/svg">
</g>
<g xmlns="http://www.w3.org/2000/svg">
</g>
<g xmlns="http://www.w3.org/2000/svg">
</g>
<g xmlns="http://www.w3.org/2000/svg">
</g>
<g xmlns="http://www.w3.org/2000/svg">
</g>
<g xmlns="http://www.w3.org/2000/svg">
</g>
<g xmlns="http://www.w3.org/2000/svg">
</g>
<g xmlns="http://www.w3.org/2000/svg">
</g>
<g xmlns="http://www.w3.org/2000/svg">
</g>
<g xmlns="http://www.w3.org/2000/svg">
</g>
<g xmlns="http://www.w3.org/2000/svg">
</g>
<g xmlns="http://www.w3.org/2000/svg">
</g>
<g xmlns="http://www.w3.org/2000/svg">
</g>
<g xmlns="http://www.w3.org/2000/svg">
</g>
</g></svg>
