<?xml version="1.0"?>
<svg xmlns="http://www.w3.org/2000/svg" xmlns:xlink="http://www.w3.org/1999/xlink" xmlns:svgjs="http://svgjs.com/svgjs" version="1.1" width="512" height="512" x="0" y="0" viewBox="0 0 512 512" style="enable-background:new 0 0 512 512" xml:space="preserve" class=""><g>
<g xmlns="http://www.w3.org/2000/svg">
	<g>
		<path d="M434.574,169.703c-25.906-22.629-52.43-40.702-78.835-53.719C322.111,99.406,288.554,91,256,91    c-32.554,0-66.111,8.406-99.739,24.983c-26.405,13.017-52.929,31.091-78.835,53.719C49.366,194.213,23.453,222.641,0,256    c23.362,33.229,49.24,61.677,77.426,86.297c25.906,22.629,52.43,40.702,78.835,53.719C189.889,412.594,223.446,421,256,421    s66.111-8.406,99.739-24.983c26.405-13.017,52.929-31.091,78.835-53.719c28.06-24.51,53.974-52.938,77.426-86.297    C488.638,222.771,462.76,194.323,434.574,169.703z M256,391c-63.606,0-121.208-38.531-158.33-70.854    c-29.198-25.424-50.72-51.161-60.882-64.141C61.11,224.985,150.532,121,256,121c63.606,0,121.208,38.531,158.33,70.854    c29.195,25.421,50.717,51.158,60.882,64.141C450.89,287.015,361.468,391,256,391z" fill="#78b3c5" data-original="#000000" style="" class=""/>
	</g>
</g>
<g xmlns="http://www.w3.org/2000/svg">
	<g>
		<path d="M256,151c-57.897,0-105,47.103-105,105c0,57.897,47.103,105,105,105c57.897,0,105-47.103,105-105    C361,198.103,313.897,151,256,151z M256,331c-41.355,0-75-33.645-75-75c0-41.355,33.645-75,75-75s75,33.645,75,75    S297.355,331,256,331z" fill="#78b3c5" data-original="#000000" style="" class=""/>
	</g>
</g>
<g xmlns="http://www.w3.org/2000/svg">
	<g>
		<path d="M256,211c-24.813,0-45,20.187-45,45s20.187,45,45,45s45-20.187,45-45S280.813,211,256,211z M256,271    c-8.271,0-15-6.729-15-15s6.729-15,15-15s15,6.729,15,15S264.271,271,256,271z" fill="#78b3c5" data-original="#000000" style="" class=""/>
	</g>
</g>
<g xmlns="http://www.w3.org/2000/svg">
</g>
<g xmlns="http://www.w3.org/2000/svg">
</g>
<g xmlns="http://www.w3.org/2000/svg">
</g>
<g xmlns="http://www.w3.org/2000/svg">
</g>
<g xmlns="http://www.w3.org/2000/svg">
</g>
<g xmlns="http://www.w3.org/2000/svg">
</g>
<g xmlns="http://www.w3.org/2000/svg">
</g>
<g xmlns="http://www.w3.org/2000/svg">
</g>
<g xmlns="http://www.w3.org/2000/svg">
</g>
<g xmlns="http://www.w3.org/2000/svg">
</g>
<g xmlns="http://www.w3.org/2000/svg">
</g>
<g xmlns="http://www.w3.org/2000/svg">
</g>
<g xmlns="http://www.w3.org/2000/svg">
</g>
<g xmlns="http://www.w3.org/2000/svg">
</g>
<g xmlns="http://www.w3.org/2000/svg">
</g>
</g></svg>
